# xmcd CD database file
#
# Track frame offsets:
#	150
#	13470
#	24852
#	38135
#	51300
#	65370
#	80945
#	95847
#	106937
#	116947
#	128397
#	140907
#
# Disc length: 2066 seconds
#
# Revision: 1
# Processed by: cddbd v1.5.2PL0 Copyright (c) Steve Scherf et al.
# Submitted via: CDex 1.51
#
DISCID=ad08100c
DTITLE=Nini Rosso - I grandi successi originali [CD1)
DYEAR=2001
DGENRE=Pop
TTITLE0=La ballata della tromba
TTITLE1=Clown
TTITLE2=Evelyne
TTITLE3=I musicanti
TTITLE4=Il silenzio
TTITLE5=Love story
TTITLE6=Vivre pour vivre
TTITLE7=Deguello
TTITLE8=The big country
TTITLE9=La canzone di Alamo
TTITLE10=Moon river
TTITLE11=Per qualche dollaro in più
EXTD=YEAR: 2001
EXTT0=
EXTT1=
EXTT2=
EXTT3=
EXTT4=
EXTT5=
EXTT6=
EXTT7=
EXTT8=
EXTT9=
EXTT10=
EXTT11=
PLAYORDER=
